<svg xmlns:xlink="http://www.w3.org/1999/xlink" width="720pt" height="432pt" viewBox="0 0 720 432" xmlns="http://www.w3.org/2000/svg" version="1.1">
 <metadata>
  
   
    
    2025-08-07T10:46:47.468129
    image/svg+xml
    
     
      Matplotlib v3.10.3, https://matplotlib.org/
     
    
   
  
 </metadata>
 <defs>
  <style type="text/css">*{stroke-linejoin: round; stroke-linecap: butt}</style>
 </defs>
 <g id="figure_1">
  <g id="patch_1">
   <path d="M 0 432 
L 720 432 
L 720 0 
L 0 0 
z" style="fill: #ffffff"></path>
  </g>
  <g id="axes_1">
   <g id="patch_2">
    <path d="M 59.6 382.12 
L 657.395799 382.12 
L 657.395799 29.76 
L 59.6 29.76 
z" style="fill: #ffffff"></path>
   </g>
   <g id="matplotlib.axis_1">
    <g id="xtick_1">
     <g id="line2d_1">
      <path d="M 123.979958 382.12 
L 123.979958 29.76" clip-path="url(#pfb0876c403)" style="fill: none; stroke: #b0b0b0; stroke-width: 0.8; stroke-linecap: square"></path>
     </g>
     <g id="line2d_2">
      <defs>
       <path id="m7ad8893302" d="M 0 0 
L 0 3.5" style="stroke: #000000; stroke-width: 0.8"></path>
      </defs>
      <g>
       
      </g>
     </g>
     <g id="text_1">
      <text style="font-size: 12px; font-family: 'DejaVu Sans', 'Arial', sans-serif; text-anchor: middle" x="123.979958" y="398.238125" transform="rotate(-0 123.979958 398.238125)">8000</text>
     </g>
    </g>
    <g id="xtick_2">
     <g id="line2d_3">
      <path d="M 224.654292 382.12 
L 224.654292 29.76" clip-path="url(#pfb0876c403)" style="fill: none; stroke: #b0b0b0; stroke-width: 0.8; stroke-linecap: square"></path>
     </g>
     <g id="line2d_4">
      <g>
       
      </g>
     </g>
     <g id="text_2">
      <text style="font-size: 12px; font-family: 'DejaVu Sans', 'Arial', sans-serif; text-anchor: middle" x="224.654292" y="398.238125" transform="rotate(-0 224.654292 398.238125)">9000</text>
     </g>
    </g>
    <g id="xtick_3">
     <g id="line2d_5">
      <path d="M 325.328626 382.12 
L 325.328626 29.76" clip-path="url(#pfb0876c403)" style="fill: none; stroke: #b0b0b0; stroke-width: 0.8; stroke-linecap: square"></path>
     </g>
     <g id="line2d_6">
      <g>
       
      </g>
     </g>
     <g id="text_3">
      <text style="font-size: 12px; font-family: 'DejaVu Sans', 'Arial', sans-serif; text-anchor: middle" x="325.328626" y="398.238125" transform="rotate(-0 325.328626 398.238125)">10000</text>
     </g>
    </g>
    <g id="xtick_4">
     <g id="line2d_7">
      <path d="M 426.00296 382.12 
L 426.00296 29.76" clip-path="url(#pfb0876c403)" style="fill: none; stroke: #b0b0b0; stroke-width: 0.8; stroke-linecap: square"></path>
     </g>
     <g id="line2d_8">
      <g>
       
      </g>
     </g>
     <g id="text_4">
      <text style="font-size: 12px; font-family: 'DejaVu Sans', 'Arial', sans-serif; text-anchor: middle" x="426.00296" y="398.238125" transform="rotate(-0 426.00296 398.238125)">11000</text>
     </g>
    </g>
    <g id="xtick_5">
     <g id="line2d_9">
      <path d="M 526.677294 382.12 
L 526.677294 29.76" clip-path="url(#pfb0876c403)" style="fill: none; stroke: #b0b0b0; stroke-width: 0.8; stroke-linecap: square"></path>
     </g>
     <g id="line2d_10">
      <g>
       
      </g>
     </g>
     <g id="text_5">
      <text style="font-size: 12px; font-family: 'DejaVu Sans', 'Arial', sans-serif; text-anchor: middle" x="526.677294" y="398.238125" transform="rotate(-0 526.677294 398.238125)">12000</text>
     </g>
    </g>
    <g id="xtick_6">
     <g id="line2d_11">
      <path d="M 627.351628 382.12 
L 627.351628 29.76" clip-path="url(#pfb0876c403)" style="fill: none; stroke: #b0b0b0; stroke-width: 0.8; stroke-linecap: square"></path>
     </g>
     <g id="line2d_12">
      <g>
       
      </g>
     </g>
     <g id="text_6">
      <text style="font-size: 12px; font-family: 'DejaVu Sans', 'Arial', sans-serif; text-anchor: middle" x="627.351628" y="398.238125" transform="rotate(-0 627.351628 398.238125)">13000</text>
     </g>
    </g>
    <g id="text_7">
     <text style="font-size: 12px; font-family: 'DejaVu Sans', 'Arial', sans-serif; text-anchor: middle" x="358.497899" y="413.851875" transform="rotate(-0 358.497899 413.851875)">Inlet flow, Nm続/h</text>
    </g>
   </g>
   <g id="matplotlib.axis_2">
    <g id="ytick_1">
     <g id="line2d_13">
      <path d="M 59.6 337.363254 
L 657.395799 337.363254" clip-path="url(#pfb0876c403)" style="fill: none; stroke: #b0b0b0; stroke-width: 0.8; stroke-linecap: square"></path>
     </g>
     <g id="line2d_14">
      <defs>
       <path id="m1eca79c1e9" d="M 0 0 
L -3.5 0" style="stroke: #000000; stroke-width: 0.8"></path>
      </defs>
      <g>
       
      </g>
     </g>
     <g id="text_8">
      <text style="font-size: 12px; font-family: 'DejaVu Sans', 'Arial', sans-serif; text-anchor: end" x="52.6" y="341.922317" transform="rotate(-0 52.6 341.922317)">400</text>
     </g>
    </g>
    <g id="ytick_2">
     <g id="line2d_15">
      <path d="M 59.6 279.554134 
L 657.395799 279.554134" clip-path="url(#pfb0876c403)" style="fill: none; stroke: #b0b0b0; stroke-width: 0.8; stroke-linecap: square"></path>
     </g>
     <g id="line2d_16">
      <g>
       
      </g>
     </g>
     <g id="text_9">
      <text style="font-size: 12px; font-family: 'DejaVu Sans', 'Arial', sans-serif; text-anchor: end" x="52.6" y="284.113196" transform="rotate(-0 52.6 284.113196)">500</text>
     </g>
    </g>
    <g id="ytick_3">
     <g id="line2d_17">
      <path d="M 59.6 221.745013 
L 657.395799 221.745013" clip-path="url(#pfb0876c403)" style="fill: none; stroke: #b0b0b0; stroke-width: 0.8; stroke-linecap: square"></path>
     </g>
     <g id="line2d_18">
      <g>
       
      </g>
     </g>
     <g id="text_10">
      <text style="font-size: 12px; font-family: 'DejaVu Sans', 'Arial', sans-serif; text-anchor: end" x="52.6" y="226.304076" transform="rotate(-0 52.6 226.304076)">600</text>
     </g>
    </g>
    <g id="ytick_4">
     <g id="line2d_19">
      <path d="M 59.6 163.935893 
L 657.395799 163.935893" clip-path="url(#pfb0876c403)" style="fill: none; stroke: #b0b0b0; stroke-width: 0.8; stroke-linecap: square"></path>
     </g>
     <g id="line2d_20">
      <g>
       
      </g>
     </g>
     <g id="text_11">
      <text style="font-size: 12px; font-family: 'DejaVu Sans', 'Arial', sans-serif; text-anchor: end" x="52.6" y="168.494956" transform="rotate(-0 52.6 168.494956)">700</text>
     </g>
    </g>
    <g id="ytick_5">
     <g id="line2d_21">
      <path d="M 59.6 106.126773 
L 657.395799 106.126773" clip-path="url(#pfb0876c403)" style="fill: none; stroke: #b0b0b0; stroke-width: 0.8; stroke-linecap: square"></path>
     </g>
     <g id="line2d_22">
      <g>
       
      </g>
     </g>
     <g id="text_12">
      <text style="font-size: 12px; font-family: 'DejaVu Sans', 'Arial', sans-serif; text-anchor: end" x="52.6" y="110.685835" transform="rotate(-0 52.6 110.685835)">800</text>
     </g>
    </g>
    <g id="ytick_6">
     <g id="line2d_23">
      <path d="M 59.6 48.317653 
L 657.395799 48.317653" clip-path="url(#pfb0876c403)" style="fill: none; stroke: #b0b0b0; stroke-width: 0.8; stroke-linecap: square"></path>
     </g>
     <g id="line2d_24">
      <g>
       
      </g>
     </g>
     <g id="text_13">
      <text style="font-size: 12px; font-family: 'DejaVu Sans', 'Arial', sans-serif; text-anchor: end" x="52.6" y="52.876715" transform="rotate(-0 52.6 52.876715)">900</text>
     </g>
    </g>
    <g id="text_14">
     <text style="font-size: 12px; font-family: 'DejaVu Sans', 'Arial', sans-serif; text-anchor: middle" x="23.199375" y="205.94" transform="rotate(-90 23.199375 205.94)">Discharge pressure, kPa abs</text>
    </g>
   </g>
   <g id="line2d_25">
    <path d="M 86.772536 220.814287 
L 93.793821 230.26834 
L 99.492254 239.038443 
L 104.071353 246.809897 
L 108.24342 254.92761 
L 113.026034 265.94591 
L 116.791071 275.312269 
L 119.53853 282.713473 
L 122.69302 292.360971 
L 127.679149 309.280148 
L 130.731881 321.868588 
L 132.563521 330.538496 
L 134.191645 339.590389 
L 135.514495 348.55257 
L 137.244377 363.309699 
L 137.54965 366.103636 
L 137.54965 366.103636" clip-path="url(#pfb0876c403)" style="fill: none; stroke: #ffa500; stroke-width: 1.5; stroke-linecap: square"></path>
   </g>
   <g id="line2d_26">
    <path d="M 304.059361 103.687228 
L 312.424335 107.489392 
L 325.494607 114.305775 
L 338.826285 122.833078 
L 352.157963 132.795084 
L 361.568559 141.148405 
L 367.319479 146.603777 
L 376.46867 155.972215 
L 379.34413 159.09644 
L 387.709104 169.488964 
L 391.891591 175.000017 
L 397.1197 182.475508 
L 402.609214 191.093961 
L 406.791702 198.169369 
L 411.758405 207.430525 
L 415.156676 214.330174 
L 419.077758 223.363925 
L 421.953218 230.689907 
L 424.828678 238.825669 
L 427.181327 246.414446 
L 430.318192 259.105747 
L 431.625219 265.143976 
L 433.455057 275.475154 
L 434.500679 282.402967 
L 434.500679 282.402967" clip-path="url(#pfb0876c403)" style="fill: none; stroke: #ff00ff; stroke-width: 1.5; stroke-linecap: square"></path>
   </g>
   <g id="line2d_27">
    <path d="M 358.380815 75.17577 
L 366.765022 77.556162 
L 376.895939 81.086252 
L 382.834752 83.344417 
L 387.376198 85.224132 
L 399.952508 91.132778 
L 407.638031 95.095936 
L 416.37158 100.333863 
L 426.851839 107.002347 
L 429.297232 108.810634 
L 441.174859 117.817998 
L 449.209724 124.506282 
L 456.196563 130.91342 
L 464.58077 139.313753 
L 469.122215 144.140764 
L 483.445236 161.30033 
L 490.781417 170.727188 
L 497.069572 179.527831 
L 501.960359 186.698857 
L 508.597856 197.769596 
L 511.741934 203.34083 
L 516.982063 214.693918 
L 520.126141 222.155044 
L 523.619561 232.009491 
L 526.763638 243.604566 
L 529.558374 256.825397 
L 531.305084 266.163896 
L 532.702451 275.643925 
L 532.702451 275.643925" clip-path="url(#pfb0876c403)" style="fill: none; stroke: #008000; stroke-width: 1.5; stroke-linecap: square"></path>
   </g>
   <g id="line2d_28">
    <path d="M 395.023655 57.53127 
L 405.233807 59.925247 
L 411.662422 61.673259 
L 418.46919 63.765824 
L 427.923034 67.018069 
L 432.460879 68.734877 
L 438.889494 71.401421 
L 447.965184 75.616269 
L 455.150106 79.17713 
L 458.55349 81.004821 
L 466.116566 85.468915 
L 474.814103 91.067243 
L 480.864563 95.2064 
L 487.293178 99.915598 
L 495.234407 106.288621 
L 502.419329 112.518515 
L 509.226097 118.830338 
L 516.789173 126.309637 
L 523.595941 133.425319 
L 528.890094 139.286429 
L 536.075015 147.955032 
L 542.881783 156.757933 
L 547.041475 162.4509 
L 553.848243 172.582544 
L 559.142396 180.988869 
L 563.680241 188.753636 
L 568.974394 198.928596 
L 572.755932 206.844233 
L 576.53747 216.739052 
L 579.5627 226.044948 
L 581.831623 234.36989 
L 583.722392 242.886965 
L 583.722392 242.886965" clip-path="url(#pfb0876c403)" style="fill: none; stroke: #0000ff; stroke-width: 1.5; stroke-linecap: square"></path>
   </g>
   <g id="line2d_29">
    <path d="M 432.683105 45.776364 
L 441.788162 47.930925 
L 450.893219 50.547526 
L 460.394149 53.501729 
L 470.686822 57.356085 
L 477.812519 60.277811 
L 483.7506 62.903548 
L 489.688681 65.764428 
L 498.001995 70.199792 
L 503.544203 73.383311 
L 511.857517 78.569725 
L 517.795598 82.513282 
L 524.12955 86.990521 
L 530.859375 92.118953 
L 537.985073 98.003323 
L 545.902514 104.972801 
L 551.444723 110.127013 
L 558.57042 117.212404 
L 566.883733 125.980746 
L 571.634198 131.233773 
L 577.968151 138.69217 
L 585.48972 148.32681 
L 591.823673 156.897976 
L 596.178265 163.141938 
L 601.720474 171.94211 
L 605.679195 178.785347 
L 611.221404 189.786384 
L 613.596636 194.891465 
L 618.742973 207.836898 
L 619.930589 211.088803 
L 623.097565 221.612692 
L 624.681054 227.439987 
L 626.660414 237.628266 
L 628.243902 247.777925 
L 630.223263 262.931699 
L 630.223263 262.931699" clip-path="url(#pfb0876c403)" style="fill: none; stroke: #ff0000; stroke-width: 1.5; stroke-linecap: square"></path>
   </g>
   <g id="line2d_30">
    <path d="M 59.6 220.993495 
L 657.395799 220.993495" clip-path="url(#pfb0876c403)" style="fill: none; stroke-dasharray: 5.55,2.4; stroke-dashoffset: 0; stroke: #ff0000; stroke-width: 1.5"></path>
   </g>
   <g id="line2d_31">
    <path d="M 59.6 198.245606 
L 657.395799 198.245606" clip-path="url(#pfb0876c403)" style="fill: none; stroke-dasharray: 5.55,2.4; stroke-dashoffset: 0; stroke: #0000ff; stroke-width: 1.5"></path>
   </g>
   <g id="line2d_32">
    <path d="M 59.6 175.497717 
L 657.395799 175.497717" clip-path="url(#pfb0876c403)" style="fill: none; stroke-dasharray: 5.55,2.4; stroke-dashoffset: 0; stroke: #000000; stroke-width: 1.5"></path>
   </g>
   <g id="line2d_33">
    <path d="M 623.097565 382.12 
L 623.097565 29.76" clip-path="url(#pfb0876c403)" style="fill: none; stroke-dasharray: 5.55,2.4; stroke-dashoffset: 0; stroke: #ff0000; stroke-width: 1.5"></path>
   </g>
   <g id="line2d_34">
    <path d="M 568.59624 382.12 
L 568.59624 29.76" clip-path="url(#pfb0876c403)" style="fill: none; stroke-dasharray: 5.55,2.4; stroke-dashoffset: 0; stroke: #0000ff; stroke-width: 1.5"></path>
   </g>
   <g id="line2d_35">
    <path d="M 603.894508 382.12 
L 603.894508 29.76" clip-path="url(#pfb0876c403)" style="fill: none; stroke-dasharray: 5.55,2.4; stroke-dashoffset: 0; stroke: #000000; stroke-width: 1.5"></path>
   </g>
   <g id="line2d_36">
    <defs>
     <path id="m58c8e60c65" d="M 0 3 
C 0.795609 3 1.55874 2.683901 2.12132 2.12132 
C 2.683901 1.55874 3 0.795609 3 0 
C 3 -0.795609 2.683901 -1.55874 2.12132 -2.12132 
C 1.55874 -2.683901 0.795609 -3 0 -3 
C -0.795609 -3 -1.55874 -2.683901 -2.12132 -2.12132 
C -2.683901 -1.55874 -3 -0.795609 -3 0 
C -3 0.795609 -2.683901 1.55874 -2.12132 2.12132 
C -1.55874 2.683901 -0.795609 3 0 3 
z" style="stroke: #ff0000"></path>
    </defs>
    <g clip-path="url(#pfb0876c403)">
     
    </g>
   </g>
   <g id="line2d_37">
    <defs>
     <path id="m427ca7abed" d="M 0 3 
C 0.795609 3 1.55874 2.683901 2.12132 2.12132 
C 2.683901 1.55874 3 0.795609 3 0 
C 3 -0.795609 2.683901 -1.55874 2.12132 -2.12132 
C 1.55874 -2.683901 0.795609 -3 0 -3 
C -0.795609 -3 -1.55874 -2.683901 -2.12132 -2.12132 
C -2.683901 -1.55874 -3 -0.795609 -3 0 
C -3 0.795609 -2.683901 1.55874 -2.12132 2.12132 
C -1.55874 2.683901 -0.795609 3 0 3 
z" style="stroke: #0000ff"></path>
    </defs>
    <g clip-path="url(#pfb0876c403)">
     
    </g>
   </g>
   <g id="line2d_38">
    <defs>
     <path id="m0487433019" d="M 0 3 
C 0.795609 3 1.55874 2.683901 2.12132 2.12132 
C 2.683901 1.55874 3 0.795609 3 0 
C 3 -0.795609 2.683901 -1.55874 2.12132 -2.12132 
C 1.55874 -2.683901 0.795609 -3 0 -3 
C -0.795609 -3 -1.55874 -2.683901 -2.12132 -2.12132 
C -2.683901 -1.55874 -3 -0.795609 -3 0 
C -3 0.795609 -2.683901 1.55874 -2.12132 2.12132 
C -1.55874 2.683901 -0.795609 3 0 3 
z" style="stroke: #000000"></path>
    </defs>
    <g clip-path="url(#pfb0876c403)">
     
    </g>
   </g>
   <g id="patch_3">
    <path d="M 59.6 382.12 
L 59.6 29.76" style="fill: none; stroke: #000000; stroke-width: 0.8; stroke-linejoin: miter; stroke-linecap: square"></path>
   </g>
   <g id="patch_4">
    <path d="M 657.395799 382.12 
L 657.395799 29.76" style="fill: none; stroke: #000000; stroke-width: 0.8; stroke-linejoin: miter; stroke-linecap: square"></path>
   </g>
   <g id="patch_5">
    <path d="M 59.6 382.12 
L 657.395799 382.12" style="fill: none; stroke: #000000; stroke-width: 0.8; stroke-linejoin: miter; stroke-linecap: square"></path>
   </g>
   <g id="patch_6">
    <path d="M 59.6 29.76 
L 657.395799 29.76" style="fill: none; stroke: #000000; stroke-width: 0.8; stroke-linejoin: miter; stroke-linecap: square"></path>
   </g>
   <g id="text_15">
    <text style="font-size: 12px; font-family: 'DejaVu Sans', 'Arial', sans-serif; text-anchor: start; fill: #ffa500" x="91.806253" y="220.814287" transform="rotate(-0 91.806253 220.814287)">IGV 20%</text>
   </g>
   <g id="text_16">
    <text style="font-size: 12px; font-family: 'DejaVu Sans', 'Arial', sans-serif; text-anchor: start; fill: #ff00ff" x="309.093077" y="103.687228" transform="rotate(-0 309.093077 103.687228)">IGV 40%</text>
   </g>
   <g id="text_17">
    <text style="font-size: 12px; font-family: 'DejaVu Sans', 'Arial', sans-serif; text-anchor: start; fill: #008000" x="363.414532" y="75.17577" transform="rotate(-0 363.414532 75.17577)">IGV 60%</text>
   </g>
   <g id="text_18">
    <text style="font-size: 12px; font-family: 'DejaVu Sans', 'Arial', sans-serif; text-anchor: start; fill: #0000ff" x="400.057372" y="57.53127" transform="rotate(-0 400.057372 57.53127)">IGV 80%</text>
   </g>
   <g id="text_19">
    <text style="font-size: 12px; font-family: 'DejaVu Sans', 'Arial', sans-serif; text-anchor: start; fill: #ff0000" x="437.716821" y="45.776364" transform="rotate(-0 437.716821 45.776364)">IGV 100%</text>
   </g>
   <g id="text_20">
    <text style="font-size: 12px; font-family: 'DejaVu Sans', 'Arial', sans-serif; text-anchor: start; fill: #ff0000" x="187.44687" y="218.103039" transform="rotate(-0 187.44687 218.103039)">601.3 kPa</text>
   </g>
   <g id="text_21">
    <text style="font-size: 12px; font-family: 'DejaVu Sans', 'Arial', sans-serif; text-anchor: start; fill: #0000ff" x="187.44687" y="195.35515" transform="rotate(-0 187.44687 195.35515)">640.6 kPa</text>
   </g>
   <g id="text_22">
    <text style="font-size: 12px; font-family: 'DejaVu Sans', 'Arial', sans-serif; text-anchor: start" x="187.44687" y="172.607261" transform="rotate(-0 187.44687 172.607261)">680.0 kPa</text>
   </g>
   <g id="patch_7">
    <path d="M 636.010228 217.359441 
Q 630.516987 218.905422 626.099971 220.148518" style="fill: none; stroke: #000000; stroke-linecap: round"></path>
    <path d="M 631.370657 221.158406 
L 626.099971 220.148518 
L 630.070293 216.537902" style="fill: none; stroke: #000000; stroke-linecap: round"></path>
   </g>
   <g id="text_23">
    <text style="font-size: 12px; font-family: 'DejaVu Sans', 'Arial', sans-serif; text-anchor: start; fill: #ff0000" x="626.117795" y="212.322127" transform="rotate(-0 626.117795 212.322127)">12958 Nm続/h</text>
   </g>
   <g id="patch_8">
    <path d="M 581.508904 194.611552 
Q 576.015662 196.157533 571.598646 197.400629" style="fill: none; stroke: #000000; stroke-linecap: round"></path>
    <path d="M 576.869332 198.410517 
L 571.598646 197.400629 
L 575.568968 193.790013" style="fill: none; stroke: #000000; stroke-linecap: round"></path>
   </g>
   <g id="text_24">
    <text style="font-size: 12px; font-family: 'DejaVu Sans', 'Arial', sans-serif; text-anchor: start; fill: #0000ff" x="571.61647" y="189.574238" transform="rotate(-0 571.61647 189.574238)">12416 Nm続/h</text>
   </g>
   <g id="patch_9">
    <path d="M 616.807171 171.863663 
Q 611.31393 173.409644 606.896914 174.65274" style="fill: none; stroke: #000000; stroke-linecap: round"></path>
    <path d="M 612.1676 175.662628 
L 606.896914 174.65274 
L 610.867236 171.042124" style="fill: none; stroke: #000000; stroke-linecap: round"></path>
   </g>
   <g id="text_25">
    <text style="font-size: 12px; font-family: 'DejaVu Sans', 'Arial', sans-serif; text-anchor: start" x="606.914738" y="166.826349" transform="rotate(-0 606.914738 166.826349)">12767 Nm続/h</text>
   </g>
   <g id="text_26">
    <text style="font-size: 14px; font-family: 'DejaVu Sans', 'Arial', sans-serif; text-anchor: middle" x="358.497899" y="23.76" transform="rotate(-0 358.497899 23.76)">Inlet Flow vs Discharge Pressure</text>
   </g>
  </g>
 </g>
 <defs>
  <clipPath id="pfb0876c403">
   <rect x="59.6" y="29.76" width="597.795799" height="352.36"></rect>
  </clipPath>
 </defs>
</svg>
