<svg xmlns:xlink="http://www.w3.org/1999/xlink" width="720pt" height="432pt" viewBox="0 0 720 432" xmlns="http://www.w3.org/2000/svg" version="1.1">
 <metadata>
  
   
    
    2025-08-07T10:47:12.298630
    image/svg+xml
    
     
      Matplotlib v3.10.3, https://matplotlib.org/
     
    
   
  
 </metadata>
 <defs>
  <style type="text/css">*{stroke-linejoin: round; stroke-linecap: butt}</style>
 </defs>
 <g id="figure_1">
  <g id="patch_1">
   <path d="M 0 432 
L 720 432 
L 720 0 
L 0 0 
z" style="fill: #ffffff"></path>
  </g>
  <g id="axes_1">
   <g id="patch_2">
    <path d="M 67.34 382.12 
L 657.544672 382.12 
L 657.544672 29.76 
L 67.34 29.76 
z" style="fill: #ffffff"></path>
   </g>
   <g id="matplotlib.axis_1">
    <g id="xtick_1">
     <g id="line2d_1">
      <path d="M 130.98228 382.12 
L 130.98228 29.76" clip-path="url(#pe66ec03248)" style="fill: none; stroke: #b0b0b0; stroke-width: 0.8; stroke-linecap: square"></path>
     </g>
     <g id="line2d_2">
      <defs>
       <path id="m2d28d2d69f" d="M 0 0 
L 0 3.5" style="stroke: #000000; stroke-width: 0.8"></path>
      </defs>
      <g>
       
      </g>
     </g>
     <g id="text_1">
      <text style="font-size: 12px; font-family: 'DejaVu Sans', 'Arial', sans-serif; text-anchor: middle" x="130.98228" y="398.238125" transform="rotate(-0 130.98228 398.238125)">8000</text>
     </g>
    </g>
    <g id="xtick_2">
     <g id="line2d_3">
      <path d="M 231.781214 382.12 
L 231.781214 29.76" clip-path="url(#pe66ec03248)" style="fill: none; stroke: #b0b0b0; stroke-width: 0.8; stroke-linecap: square"></path>
     </g>
     <g id="line2d_4">
      <g>
       
      </g>
     </g>
     <g id="text_2">
      <text style="font-size: 12px; font-family: 'DejaVu Sans', 'Arial', sans-serif; text-anchor: middle" x="231.781214" y="398.238125" transform="rotate(-0 231.781214 398.238125)">9000</text>
     </g>
    </g>
    <g id="xtick_3">
     <g id="line2d_5">
      <path d="M 332.580148 382.12 
L 332.580148 29.76" clip-path="url(#pe66ec03248)" style="fill: none; stroke: #b0b0b0; stroke-width: 0.8; stroke-linecap: square"></path>
     </g>
     <g id="line2d_6">
      <g>
       
      </g>
     </g>
     <g id="text_3">
      <text style="font-size: 12px; font-family: 'DejaVu Sans', 'Arial', sans-serif; text-anchor: middle" x="332.580148" y="398.238125" transform="rotate(-0 332.580148 398.238125)">10000</text>
     </g>
    </g>
    <g id="xtick_4">
     <g id="line2d_7">
      <path d="M 433.379082 382.12 
L 433.379082 29.76" clip-path="url(#pe66ec03248)" style="fill: none; stroke: #b0b0b0; stroke-width: 0.8; stroke-linecap: square"></path>
     </g>
     <g id="line2d_8">
      <g>
       
      </g>
     </g>
     <g id="text_4">
      <text style="font-size: 12px; font-family: 'DejaVu Sans', 'Arial', sans-serif; text-anchor: middle" x="433.379082" y="398.238125" transform="rotate(-0 433.379082 398.238125)">11000</text>
     </g>
    </g>
    <g id="xtick_5">
     <g id="line2d_9">
      <path d="M 534.178016 382.12 
L 534.178016 29.76" clip-path="url(#pe66ec03248)" style="fill: none; stroke: #b0b0b0; stroke-width: 0.8; stroke-linecap: square"></path>
     </g>
     <g id="line2d_10">
      <g>
       
      </g>
     </g>
     <g id="text_5">
      <text style="font-size: 12px; font-family: 'DejaVu Sans', 'Arial', sans-serif; text-anchor: middle" x="534.178016" y="398.238125" transform="rotate(-0 534.178016 398.238125)">12000</text>
     </g>
    </g>
    <g id="xtick_6">
     <g id="line2d_11">
      <path d="M 634.97695 382.12 
L 634.97695 29.76" clip-path="url(#pe66ec03248)" style="fill: none; stroke: #b0b0b0; stroke-width: 0.8; stroke-linecap: square"></path>
     </g>
     <g id="line2d_12">
      <g>
       
      </g>
     </g>
     <g id="text_6">
      <text style="font-size: 12px; font-family: 'DejaVu Sans', 'Arial', sans-serif; text-anchor: middle" x="634.97695" y="398.238125" transform="rotate(-0 634.97695 398.238125)">13000</text>
     </g>
    </g>
    <g id="text_7">
     <text style="font-size: 12px; font-family: 'DejaVu Sans', 'Arial', sans-serif; text-anchor: middle" x="362.442336" y="413.851875" transform="rotate(-0 362.442336 413.851875)">Inlet flow, Nm続/h</text>
    </g>
   </g>
   <g id="matplotlib.axis_2">
    <g id="ytick_1">
     <g id="line2d_13">
      <path d="M 67.34 371.085034 
L 657.544672 371.085034" clip-path="url(#pe66ec03248)" style="fill: none; stroke: #b0b0b0; stroke-width: 0.8; stroke-linecap: square"></path>
     </g>
     <g id="line2d_14">
      <defs>
       <path id="md0b0d05b75" d="M 0 0 
L -3.5 0" style="stroke: #000000; stroke-width: 0.8"></path>
      </defs>
      <g>
       
      </g>
     </g>
     <g id="text_8">
      <text style="font-size: 12px; font-family: 'DejaVu Sans', 'Arial', sans-serif; text-anchor: end" x="60.34" y="375.644096" transform="rotate(-0 60.34 375.644096)">600</text>
     </g>
    </g>
    <g id="ytick_2">
     <g id="line2d_15">
      <path d="M 67.34 305.263186 
L 657.544672 305.263186" clip-path="url(#pe66ec03248)" style="fill: none; stroke: #b0b0b0; stroke-width: 0.8; stroke-linecap: square"></path>
     </g>
     <g id="line2d_16">
      <g>
       
      </g>
     </g>
     <g id="text_9">
      <text style="font-size: 12px; font-family: 'DejaVu Sans', 'Arial', sans-serif; text-anchor: end" x="60.34" y="309.822248" transform="rotate(-0 60.34 309.822248)">700</text>
     </g>
    </g>
    <g id="ytick_3">
     <g id="line2d_17">
      <path d="M 67.34 239.441338 
L 657.544672 239.441338" clip-path="url(#pe66ec03248)" style="fill: none; stroke: #b0b0b0; stroke-width: 0.8; stroke-linecap: square"></path>
     </g>
     <g id="line2d_18">
      <g>
       
      </g>
     </g>
     <g id="text_10">
      <text style="font-size: 12px; font-family: 'DejaVu Sans', 'Arial', sans-serif; text-anchor: end" x="60.34" y="244.0004" transform="rotate(-0 60.34 244.0004)">800</text>
     </g>
    </g>
    <g id="ytick_4">
     <g id="line2d_19">
      <path d="M 67.34 173.61949 
L 657.544672 173.61949" clip-path="url(#pe66ec03248)" style="fill: none; stroke: #b0b0b0; stroke-width: 0.8; stroke-linecap: square"></path>
     </g>
     <g id="line2d_20">
      <g>
       
      </g>
     </g>
     <g id="text_11">
      <text style="font-size: 12px; font-family: 'DejaVu Sans', 'Arial', sans-serif; text-anchor: end" x="60.34" y="178.178552" transform="rotate(-0 60.34 178.178552)">900</text>
     </g>
    </g>
    <g id="ytick_5">
     <g id="line2d_21">
      <path d="M 67.34 107.797642 
L 657.544672 107.797642" clip-path="url(#pe66ec03248)" style="fill: none; stroke: #b0b0b0; stroke-width: 0.8; stroke-linecap: square"></path>
     </g>
     <g id="line2d_22">
      <g>
       
      </g>
     </g>
     <g id="text_12">
      <text style="font-size: 12px; font-family: 'DejaVu Sans', 'Arial', sans-serif; text-anchor: end" x="60.34" y="112.356704" transform="rotate(-0 60.34 112.356704)">1000</text>
     </g>
    </g>
    <g id="ytick_6">
     <g id="line2d_23">
      <path d="M 67.34 41.975794 
L 657.544672 41.975794" clip-path="url(#pe66ec03248)" style="fill: none; stroke: #b0b0b0; stroke-width: 0.8; stroke-linecap: square"></path>
     </g>
     <g id="line2d_24">
      <g>
       
      </g>
     </g>
     <g id="text_13">
      <text style="font-size: 12px; font-family: 'DejaVu Sans', 'Arial', sans-serif; text-anchor: end" x="60.34" y="46.534856" transform="rotate(-0 60.34 46.534856)">1100</text>
     </g>
    </g>
    <g id="text_14">
     <text style="font-size: 12px; font-family: 'DejaVu Sans', 'Arial', sans-serif; text-anchor: middle" x="23.304375" y="205.94" transform="rotate(-90 23.304375 205.94)">Coupling power, kW</text>
    </g>
   </g>
   <g id="line2d_25">
    <path d="M 94.167485 329.252617 
L 102.283528 332.66612 
L 109.076302 336.430717 
L 115.869077 341.193833 
L 122.30898 346.710975 
L 128.572448 353.336394 
L 134.306608 360.604445 
L 138.188194 366.103636 
L 138.188194 366.103636" clip-path="url(#pe66ec03248)" style="fill: none; stroke: #ffa500; stroke-width: 1.5; stroke-linecap: square"></path>
   </g>
   <g id="line2d_26">
    <path d="M 312.037325 169.017226 
L 330.036487 167.194545 
L 340.789234 166.516732 
L 351.775735 166.063863 
L 355.282066 166.057793 
L 363.697258 166.338218 
L 373.982494 166.974704 
L 383.098953 167.965708 
L 389.644103 168.997673 
L 397.591785 170.645009 
L 403.201913 172.036927 
L 409.279552 173.898968 
L 416.058458 176.668309 
L 423.304874 180.521358 
L 428.681247 183.811345 
L 428.681247 183.811345" clip-path="url(#pe66ec03248)" style="fill: none; stroke: #ff00ff; stroke-width: 1.5; stroke-linecap: square"></path>
   </g>
   <g id="line2d_27">
    <path d="M 366.796346 125.960523 
L 391.235079 121.185689 
L 397.582802 120.12293 
L 412.499951 118.000514 
L 431.54312 115.771957 
L 439.160388 115.237314 
L 453.760151 114.588055 
L 470.581617 114.566517 
L 480.420587 114.960062 
L 487.085696 115.467401 
L 493.750805 116.196035 
L 500.098528 117.119688 
L 510.572271 119.034401 
L 512.793974 119.555774 
L 519.77647 121.499608 
L 525.172034 123.305269 
L 525.172034 123.305269" clip-path="url(#pe66ec03248)" style="fill: none; stroke: #008000; stroke-width: 1.5; stroke-linecap: square"></path>
   </g>
   <g id="line2d_28">
    <path d="M 398.926409 98.341675 
L 421.197091 92.852849 
L 430.84772 90.595436 
L 441.983061 88.244865 
L 455.345471 85.786679 
L 478.729687 82.264276 
L 490.978562 80.758928 
L 498.030945 80.14068 
L 506.56804 79.690845 
L 516.589847 79.376026 
L 532.179324 79.384682 
L 541.829953 79.674135 
L 547.397623 79.996849 
L 552.594116 80.443154 
L 559.275321 81.28094 
L 567.441237 82.663683 
L 573.008908 83.804453 
L 579.690113 85.464348 
L 584.144249 86.743866 
L 584.144249 86.743866" clip-path="url(#pe66ec03248)" style="fill: none; stroke: #0000ff; stroke-width: 1.5; stroke-linecap: square"></path>
   </g>
   <g id="line2d_29">
    <path d="M 440.183211 69.572262 
L 453.935334 65.334676 
L 463.598988 62.335561 
L 471.775926 60.120428 
L 481.43958 57.7297 
L 492.58995 55.459902 
L 511.1739 52.083064 
L 521.580912 50.566205 
L 533.47464 49.040765 
L 542.394936 48.157249 
L 547.598442 47.563631 
L 554.660343 46.828688 
L 560.235528 46.404312 
L 570.270861 45.895944 
L 574.35933 45.822474 
L 579.562836 45.852083 
L 589.598169 46.36888 
L 594.429996 46.77138 
L 601.120218 47.523083 
L 611.155551 48.983015 
L 614.872341 49.660907 
L 620.075847 50.748387 
L 625.651032 52.257167 
L 625.651032 52.257167" clip-path="url(#pe66ec03248)" style="fill: none; stroke: #ff0000; stroke-width: 1.5; stroke-linecap: square"></path>
   </g>
   <g id="line2d_30">
    <path d="M 67.34 52.257167 
L 657.544672 52.257167" clip-path="url(#pe66ec03248)" style="fill: none; stroke-dasharray: 5.55,2.4; stroke-dashoffset: 0; stroke: #ff0000; stroke-width: 1.5"></path>
   </g>
   <g id="line2d_31">
    <path d="M 67.34 84.493475 
L 657.544672 84.493475" clip-path="url(#pe66ec03248)" style="fill: none; stroke-dasharray: 5.55,2.4; stroke-dashoffset: 0; stroke: #0000ff; stroke-width: 1.5"></path>
   </g>
   <g id="line2d_32">
    <path d="M 67.34 48.557979 
L 657.544672 48.557979" clip-path="url(#pe66ec03248)" style="fill: none; stroke-dasharray: 5.55,2.4; stroke-dashoffset: 0; stroke: #000000; stroke-width: 1.5"></path>
   </g>
   <g id="line2d_33">
    <path d="M 630.717187 382.12 
L 630.717187 29.76" clip-path="url(#pe66ec03248)" style="fill: none; stroke-dasharray: 5.55,2.4; stroke-dashoffset: 0; stroke: #ff0000; stroke-width: 1.5"></path>
   </g>
   <g id="line2d_34">
    <path d="M 576.148676 382.12 
L 576.148676 29.76" clip-path="url(#pe66ec03248)" style="fill: none; stroke-dasharray: 5.55,2.4; stroke-dashoffset: 0; stroke: #0000ff; stroke-width: 1.5"></path>
   </g>
   <g id="line2d_35">
    <path d="M 611.490798 382.12 
L 611.490798 29.76" clip-path="url(#pe66ec03248)" style="fill: none; stroke-dasharray: 5.55,2.4; stroke-dashoffset: 0; stroke: #000000; stroke-width: 1.5"></path>
   </g>
   <g id="line2d_36">
    <defs>
     <path id="mfe3cce9764" d="M 0 3 
C 0.795609 3 1.55874 2.683901 2.12132 2.12132 
C 2.683901 1.55874 3 0.795609 3 0 
C 3 -0.795609 2.683901 -1.55874 2.12132 -2.12132 
C 1.55874 -2.683901 0.795609 -3 0 -3 
C -0.795609 -3 -1.55874 -2.683901 -2.12132 -2.12132 
C -2.683901 -1.55874 -3 -0.795609 -3 0 
C -3 0.795609 -2.683901 1.55874 -2.12132 2.12132 
C -1.55874 2.683901 -0.795609 3 0 3 
z" style="stroke: #ff0000"></path>
    </defs>
    <g clip-path="url(#pe66ec03248)">
     
    </g>
   </g>
   <g id="line2d_37">
    <defs>
     <path id="m9717f051bd" d="M 0 3 
C 0.795609 3 1.55874 2.683901 2.12132 2.12132 
C 2.683901 1.55874 3 0.795609 3 0 
C 3 -0.795609 2.683901 -1.55874 2.12132 -2.12132 
C 1.55874 -2.683901 0.795609 -3 0 -3 
C -0.795609 -3 -1.55874 -2.683901 -2.12132 -2.12132 
C -2.683901 -1.55874 -3 -0.795609 -3 0 
C -3 0.795609 -2.683901 1.55874 -2.12132 2.12132 
C -1.55874 2.683901 -0.795609 3 0 3 
z" style="stroke: #0000ff"></path>
    </defs>
    <g clip-path="url(#pe66ec03248)">
     
    </g>
   </g>
   <g id="line2d_38">
    <defs>
     <path id="m1369fc97c5" d="M 0 3 
C 0.795609 3 1.55874 2.683901 2.12132 2.12132 
C 2.683901 1.55874 3 0.795609 3 0 
C 3 -0.795609 2.683901 -1.55874 2.12132 -2.12132 
C 1.55874 -2.683901 0.795609 -3 0 -3 
C -0.795609 -3 -1.55874 -2.683901 -2.12132 -2.12132 
C -2.683901 -1.55874 -3 -0.795609 -3 0 
C -3 0.795609 -2.683901 1.55874 -2.12132 2.12132 
C -1.55874 2.683901 -0.795609 3 0 3 
z" style="stroke: #000000"></path>
    </defs>
    <g clip-path="url(#pe66ec03248)">
     
    </g>
   </g>
   <g id="patch_3">
    <path d="M 67.34 382.12 
L 67.34 29.76" style="fill: none; stroke: #000000; stroke-width: 0.8; stroke-linejoin: miter; stroke-linecap: square"></path>
   </g>
   <g id="patch_4">
    <path d="M 657.544672 382.12 
L 657.544672 29.76" style="fill: none; stroke: #000000; stroke-width: 0.8; stroke-linejoin: miter; stroke-linecap: square"></path>
   </g>
   <g id="patch_5">
    <path d="M 67.34 382.12 
L 657.544672 382.12" style="fill: none; stroke: #000000; stroke-width: 0.8; stroke-linejoin: miter; stroke-linecap: square"></path>
   </g>
   <g id="patch_6">
    <path d="M 67.34 29.76 
L 657.544672 29.76" style="fill: none; stroke: #000000; stroke-width: 0.8; stroke-linejoin: miter; stroke-linecap: square"></path>
   </g>
   <g id="text_15">
    <text style="font-size: 12px; font-family: 'DejaVu Sans', 'Arial', sans-serif; text-anchor: start; fill: #ffa500" x="99.207432" y="329.252617" transform="rotate(-0 99.207432 329.252617)">IGV 20%</text>
   </g>
   <g id="text_16">
    <text style="font-size: 12px; font-family: 'DejaVu Sans', 'Arial', sans-serif; text-anchor: start; fill: #ff00ff" x="271.717751" y="165.726134" transform="rotate(-0 271.717751 165.726134)">IGV 40%</text>
   </g>
   <g id="text_17">
    <text style="font-size: 12px; font-family: 'DejaVu Sans', 'Arial', sans-serif; text-anchor: start; fill: #008000" x="326.476772" y="122.66943" transform="rotate(-0 326.476772 122.66943)">IGV 60%</text>
   </g>
   <g id="text_18">
    <text style="font-size: 12px; font-family: 'DejaVu Sans', 'Arial', sans-serif; text-anchor: start; fill: #0000ff" x="358.606836" y="95.050583" transform="rotate(-0 358.606836 95.050583)">IGV 80%</text>
   </g>
   <g id="text_19">
    <text style="font-size: 12px; font-family: 'DejaVu Sans', 'Arial', sans-serif; text-anchor: start; fill: #ff0000" x="399.863638" y="66.28117" transform="rotate(-0 399.863638 66.28117)">IGV 100%</text>
   </g>
   <g id="text_20">
    <text style="font-size: 10px; font-family: 'DejaVu Sans', 'Arial', sans-serif; fill: #ff0000" transform="translate(628.235731 331.332304) rotate(-90)">12958 Nm続/h</text>
   </g>
   <g id="text_21">
    <text style="font-size: 10px; font-family: 'DejaVu Sans', 'Arial', sans-serif; fill: #0000ff" transform="translate(573.66722 331.332304) rotate(-90)">12416 Nm続/h</text>
   </g>
   <g id="text_22">
    <text style="font-size: 10px; font-family: 'DejaVu Sans', 'Arial', sans-serif" transform="translate(609.009342 331.332304) rotate(-90)">12767 Nm続/h</text>
   </g>
   <g id="patch_7">
    <path d="M 644.787563 47.518643 
Q 638.698759 49.569188 633.669516 51.262902" style="fill: none; stroke: #000000; stroke-linecap: round"></path>
    <path d="M 638.984465 52.005415 
L 633.669516 51.262902 
L 637.452496 47.456451" style="fill: none; stroke: #000000; stroke-linecap: round"></path>
   </g>
   <g id="text_23">
    <text style="font-size: 12px; font-family: 'DejaVu Sans', 'Arial', sans-serif; text-anchor: start; fill: #ff0000" x="633.741155" y="42.383889" transform="rotate(-0 633.741155 42.383889)">1084.38 kW</text>
   </g>
   <g id="patch_8">
    <path d="M 590.219052 79.754952 
Q 584.130248 81.805497 579.101006 83.49921" style="fill: none; stroke: #000000; stroke-linecap: round"></path>
    <path d="M 584.415954 84.241723 
L 579.101006 83.49921 
L 582.883985 79.69276" style="fill: none; stroke: #000000; stroke-linecap: round"></path>
   </g>
   <g id="text_24">
    <text style="font-size: 12px; font-family: 'DejaVu Sans', 'Arial', sans-serif; text-anchor: start; fill: #0000ff" x="579.172644" y="74.620198" transform="rotate(-0 579.172644 74.620198)">1035.40 kW</text>
   </g>
   <g id="patch_9">
    <path d="M 625.561174 43.819455 
Q 619.47237 45.870001 614.443128 47.563714" style="fill: none; stroke: #000000; stroke-linecap: round"></path>
    <path d="M 619.758076 48.306227 
L 614.443128 47.563714 
L 618.226108 43.757263" style="fill: none; stroke: #000000; stroke-linecap: round"></path>
   </g>
   <g id="text_25">
    <text style="font-size: 12px; font-family: 'DejaVu Sans', 'Arial', sans-serif; text-anchor: start" x="614.514766" y="38.684702" transform="rotate(-0 614.514766 38.684702)">1090.00 kW</text>
   </g>
   <g id="text_26">
    <text style="font-size: 14px; font-family: 'DejaVu Sans', 'Arial', sans-serif; text-anchor: middle" x="362.442336" y="23.76" transform="rotate(-0 362.442336 23.76)">Inlet Flow vs Coupling Power</text>
   </g>
  </g>
 </g>
 <defs>
  <clipPath id="pe66ec03248">
   <rect x="67.34" y="29.76" width="590.204672" height="352.36"></rect>
  </clipPath>
 </defs>
</svg>
