<?xml version="1.0" encoding="utf-8" standalone="no"?>
<!DOCTYPE svg PUBLIC "-//W3C//DTD SVG 1.1//EN"
  "http://www.w3.org/Graphics/SVG/1.1/DTD/svg11.dtd">
<svg xmlns:xlink="http://www.w3.org/1999/xlink" width="576pt" height="360pt" viewBox="0 0 576 360" xmlns="http://www.w3.org/2000/svg" version="1.1">
 <metadata>
  <rdf:RDF xmlns:dc="http://purl.org/dc/elements/1.1/" xmlns:cc="http://creativecommons.org/ns#" xmlns:rdf="http://www.w3.org/1999/02/22-rdf-syntax-ns#">
   <cc:Work>
    <dc:type rdf:resource="http://purl.org/dc/dcmitype/StillImage"/>
    <dc:date>2025-07-31T14:39:16.563241</dc:date>
    <dc:format>image/svg+xml</dc:format>
    <dc:creator>
     <cc:Agent>
      <dc:title>Matplotlib v3.10.3, https://matplotlib.org/</dc:title>
     </cc:Agent>
    </dc:creator>
   </cc:Work>
  </rdf:RDF>
 </metadata>
 <defs>
  <style type="text/css">*{stroke-linejoin: round; stroke-linecap: butt}</style>
 </defs>
 <g id="figure_1">
  <g id="patch_1">
   <path d="M 0 360 
L 576 360 
L 576 0 
L 0 0 
z
" style="fill: #ffffff"/>
  </g>
  <g id="axes_1">
   <g id="patch_2">
    <path d="M 56 310.12 
L 563.04 310.12 
L 563.04 29.76 
L 56 29.76 
z
" style="fill: #ffffff"/>
   </g>
   <g id="matplotlib.axis_1">
    <g id="xtick_1">
     <g id="line2d_1">
      <path d="M 61.318601 310.12 
L 61.318601 29.76 
" clip-path="url(#p6ee08300b4)" style="fill: none; stroke-dasharray: 2.96,1.28; stroke-dashoffset: 0; stroke: #b0b0b0; stroke-opacity: 0.5; stroke-width: 0.8"/>
     </g>
     <g id="line2d_2">
      <defs>
       <path id="m13cd811925" d="M 0 0 
L 0 3.5 
" style="stroke: #000000; stroke-width: 0.8"/>
      </defs>
      <g>
       <use xlink:href="#m13cd811925" x="61.318601" y="310.12" style="stroke: #000000; stroke-width: 0.8"/>
      </g>
     </g>
     <g id="text_1">
      <text style="font-size: 12px; font-family: 'DejaVu Sans', 'Arial', sans-serif; text-anchor: middle" x="61.318601" y="326.238125" transform="rotate(-0 61.318601 326.238125)">0</text>
     </g>
    </g>
    <g id="xtick_2">
     <g id="line2d_3">
      <path d="M 149.961958 310.12 
L 149.961958 29.76 
" clip-path="url(#p6ee08300b4)" style="fill: none; stroke-dasharray: 2.96,1.28; stroke-dashoffset: 0; stroke: #b0b0b0; stroke-opacity: 0.5; stroke-width: 0.8"/>
     </g>
     <g id="line2d_4">
      <g>
       <use xlink:href="#m13cd811925" x="149.961958" y="310.12" style="stroke: #000000; stroke-width: 0.8"/>
      </g>
     </g>
     <g id="text_2">
      <text style="font-size: 12px; font-family: 'DejaVu Sans', 'Arial', sans-serif; text-anchor: middle" x="149.961958" y="326.238125" transform="rotate(-0 149.961958 326.238125)">5</text>
     </g>
    </g>
    <g id="xtick_3">
     <g id="line2d_5">
      <path d="M 238.605315 310.12 
L 238.605315 29.76 
" clip-path="url(#p6ee08300b4)" style="fill: none; stroke-dasharray: 2.96,1.28; stroke-dashoffset: 0; stroke: #b0b0b0; stroke-opacity: 0.5; stroke-width: 0.8"/>
     </g>
     <g id="line2d_6">
      <g>
       <use xlink:href="#m13cd811925" x="238.605315" y="310.12" style="stroke: #000000; stroke-width: 0.8"/>
      </g>
     </g>
     <g id="text_3">
      <text style="font-size: 12px; font-family: 'DejaVu Sans', 'Arial', sans-serif; text-anchor: middle" x="238.605315" y="326.238125" transform="rotate(-0 238.605315 326.238125)">10</text>
     </g>
    </g>
    <g id="xtick_4">
     <g id="line2d_7">
      <path d="M 327.248671 310.12 
L 327.248671 29.76 
" clip-path="url(#p6ee08300b4)" style="fill: none; stroke-dasharray: 2.96,1.28; stroke-dashoffset: 0; stroke: #b0b0b0; stroke-opacity: 0.5; stroke-width: 0.8"/>
     </g>
     <g id="line2d_8">
      <g>
       <use xlink:href="#m13cd811925" x="327.248671" y="310.12" style="stroke: #000000; stroke-width: 0.8"/>
      </g>
     </g>
     <g id="text_4">
      <text style="font-size: 12px; font-family: 'DejaVu Sans', 'Arial', sans-serif; text-anchor: middle" x="327.248671" y="326.238125" transform="rotate(-0 327.248671 326.238125)">15</text>
     </g>
    </g>
    <g id="xtick_5">
     <g id="line2d_9">
      <path d="M 415.892028 310.12 
L 415.892028 29.76 
" clip-path="url(#p6ee08300b4)" style="fill: none; stroke-dasharray: 2.96,1.28; stroke-dashoffset: 0; stroke: #b0b0b0; stroke-opacity: 0.5; stroke-width: 0.8"/>
     </g>
     <g id="line2d_10">
      <g>
       <use xlink:href="#m13cd811925" x="415.892028" y="310.12" style="stroke: #000000; stroke-width: 0.8"/>
      </g>
     </g>
     <g id="text_5">
      <text style="font-size: 12px; font-family: 'DejaVu Sans', 'Arial', sans-serif; text-anchor: middle" x="415.892028" y="326.238125" transform="rotate(-0 415.892028 326.238125)">20</text>
     </g>
    </g>
    <g id="xtick_6">
     <g id="line2d_11">
      <path d="M 504.535385 310.12 
L 504.535385 29.76 
" clip-path="url(#p6ee08300b4)" style="fill: none; stroke-dasharray: 2.96,1.28; stroke-dashoffset: 0; stroke: #b0b0b0; stroke-opacity: 0.5; stroke-width: 0.8"/>
     </g>
     <g id="line2d_12">
      <g>
       <use xlink:href="#m13cd811925" x="504.535385" y="310.12" style="stroke: #000000; stroke-width: 0.8"/>
      </g>
     </g>
     <g id="text_6">
      <text style="font-size: 12px; font-family: 'DejaVu Sans', 'Arial', sans-serif; text-anchor: middle" x="504.535385" y="326.238125" transform="rotate(-0 504.535385 326.238125)">25</text>
     </g>
    </g>
    <g id="text_7">
     <text style="font-size: 12px; font-family: 'DejaVu Sans', 'Arial', sans-serif; text-anchor: middle" x="309.52" y="341.851875" transform="rotate(-0 309.52 341.851875)">Tekanan (bar gauge)</text>
    </g>
   </g>
   <g id="matplotlib.axis_2">
    <g id="ytick_1">
     <g id="line2d_13">
      <path d="M 56 266.893247 
L 563.04 266.893247 
" clip-path="url(#p6ee08300b4)" style="fill: none; stroke-dasharray: 2.96,1.28; stroke-dashoffset: 0; stroke: #b0b0b0; stroke-opacity: 0.5; stroke-width: 0.8"/>
     </g>
     <g id="line2d_14">
      <defs>
       <path id="m90f514d015" d="M 0 0 
L -3.5 0 
" style="stroke: #000000; stroke-width: 0.8"/>
      </defs>
      <g>
       <use xlink:href="#m90f514d015" x="56" y="266.893247" style="stroke: #000000; stroke-width: 0.8"/>
      </g>
     </g>
     <g id="text_8">
      <text style="font-size: 12px; font-family: 'DejaVu Sans', 'Arial', sans-serif; text-anchor: end" x="49" y="271.452309" transform="rotate(-0 49 271.452309)">0.6</text>
     </g>
    </g>
    <g id="ytick_2">
     <g id="line2d_15">
      <path d="M 56 210.44303 
L 563.04 210.44303 
" clip-path="url(#p6ee08300b4)" style="fill: none; stroke-dasharray: 2.96,1.28; stroke-dashoffset: 0; stroke: #b0b0b0; stroke-opacity: 0.5; stroke-width: 0.8"/>
     </g>
     <g id="line2d_16">
      <g>
       <use xlink:href="#m90f514d015" x="56" y="210.44303" style="stroke: #000000; stroke-width: 0.8"/>
      </g>
     </g>
     <g id="text_9">
      <text style="font-size: 12px; font-family: 'DejaVu Sans', 'Arial', sans-serif; text-anchor: end" x="49" y="215.002093" transform="rotate(-0 49 215.002093)">0.8</text>
     </g>
    </g>
    <g id="ytick_3">
     <g id="line2d_17">
      <path d="M 56 153.992814 
L 563.04 153.992814 
" clip-path="url(#p6ee08300b4)" style="fill: none; stroke-dasharray: 2.96,1.28; stroke-dashoffset: 0; stroke: #b0b0b0; stroke-opacity: 0.5; stroke-width: 0.8"/>
     </g>
     <g id="line2d_18">
      <g>
       <use xlink:href="#m90f514d015" x="56" y="153.992814" style="stroke: #000000; stroke-width: 0.8"/>
      </g>
     </g>
     <g id="text_10">
      <text style="font-size: 12px; font-family: 'DejaVu Sans', 'Arial', sans-serif; text-anchor: end" x="49" y="158.551876" transform="rotate(-0 49 158.551876)">1.0</text>
     </g>
    </g>
    <g id="ytick_4">
     <g id="line2d_19">
      <path d="M 56 97.542597 
L 563.04 97.542597 
" clip-path="url(#p6ee08300b4)" style="fill: none; stroke-dasharray: 2.96,1.28; stroke-dashoffset: 0; stroke: #b0b0b0; stroke-opacity: 0.5; stroke-width: 0.8"/>
     </g>
     <g id="line2d_20">
      <g>
       <use xlink:href="#m90f514d015" x="56" y="97.542597" style="stroke: #000000; stroke-width: 0.8"/>
      </g>
     </g>
     <g id="text_11">
      <text style="font-size: 12px; font-family: 'DejaVu Sans', 'Arial', sans-serif; text-anchor: end" x="49" y="102.10166" transform="rotate(-0 49 102.10166)">1.2</text>
     </g>
    </g>
    <g id="ytick_5">
     <g id="line2d_21">
      <path d="M 56 41.092381 
L 563.04 41.092381 
" clip-path="url(#p6ee08300b4)" style="fill: none; stroke-dasharray: 2.96,1.28; stroke-dashoffset: 0; stroke: #b0b0b0; stroke-opacity: 0.5; stroke-width: 0.8"/>
     </g>
     <g id="line2d_22">
      <g>
       <use xlink:href="#m90f514d015" x="56" y="41.092381" style="stroke: #000000; stroke-width: 0.8"/>
      </g>
     </g>
     <g id="text_12">
      <text style="font-size: 12px; font-family: 'DejaVu Sans', 'Arial', sans-serif; text-anchor: end" x="49" y="45.651443" transform="rotate(-0 49 45.651443)">1.4</text>
     </g>
    </g>
    <g id="text_13">
     <text style="font-size: 12px; font-family: 'DejaVu Sans', 'Arial', sans-serif; text-anchor: middle" x="23.420625" y="169.94" transform="rotate(-90 23.420625 169.94)">Specific Gravity (SG)</text>
    </g>
   </g>
   <g id="line2d_23">
    <path d="M 79.047273 208.185022 
L 185.419301 242.337403 
L 539.992727 297.376364 
" clip-path="url(#p6ee08300b4)" style="fill: none; stroke: #1f77b4; stroke-width: 1.5; stroke-linecap: square"/>
    <defs>
     <path id="m474ffd7bab" d="M 0 3 
C 0.795609 3 1.55874 2.683901 2.12132 2.12132 
C 2.683901 1.55874 3 0.795609 3 0 
C 3 -0.795609 2.683901 -1.55874 2.12132 -2.12132 
C 1.55874 -2.683901 0.795609 -3 0 -3 
C -0.795609 -3 -1.55874 -2.683901 -2.12132 -2.12132 
C -2.683901 -1.55874 -3 -0.795609 -3 0 
C -3 0.795609 -2.683901 1.55874 -2.12132 2.12132 
C -1.55874 2.683901 -0.795609 3 0 3 
z
" style="stroke: #1f77b4"/>
    </defs>
    <g clip-path="url(#p6ee08300b4)">
     <use xlink:href="#m474ffd7bab" x="79.047273" y="208.185022" style="fill: #1f77b4; stroke: #1f77b4"/>
     <use xlink:href="#m474ffd7bab" x="185.419301" y="242.337403" style="fill: #1f77b4; stroke: #1f77b4"/>
     <use xlink:href="#m474ffd7bab" x="539.992727" y="297.376364" style="fill: #1f77b4; stroke: #1f77b4"/>
    </g>
   </g>
   <g id="line2d_24">
    <path d="M 79.047273 114.195411 
L 185.419301 153.992814 
L 539.992727 206.491515 
" clip-path="url(#p6ee08300b4)" style="fill: none; stroke: #ff7f0e; stroke-width: 1.5; stroke-linecap: square"/>
    <defs>
     <path id="m978d0ed011" d="M 0 3 
C 0.795609 3 1.55874 2.683901 2.12132 2.12132 
C 2.683901 1.55874 3 0.795609 3 0 
C 3 -0.795609 2.683901 -1.55874 2.12132 -2.12132 
C 1.55874 -2.683901 0.795609 -3 0 -3 
C -0.795609 -3 -1.55874 -2.683901 -2.12132 -2.12132 
C -2.683901 -1.55874 -3 -0.795609 -3 0 
C -3 0.795609 -2.683901 1.55874 -2.12132 2.12132 
C -1.55874 2.683901 -0.795609 3 0 3 
z
" style="stroke: #ff7f0e"/>
    </defs>
    <g clip-path="url(#p6ee08300b4)">
     <use xlink:href="#m978d0ed011" x="79.047273" y="114.195411" style="fill: #ff7f0e; stroke: #ff7f0e"/>
     <use xlink:href="#m978d0ed011" x="185.419301" y="153.992814" style="fill: #ff7f0e; stroke: #ff7f0e"/>
     <use xlink:href="#m978d0ed011" x="539.992727" y="206.491515" style="fill: #ff7f0e; stroke: #ff7f0e"/>
    </g>
   </g>
   <g id="line2d_25">
    <path d="M 79.047273 42.503636 
L 185.419301 91.615325 
L 539.992727 158.508831 
" clip-path="url(#p6ee08300b4)" style="fill: none; stroke: #2ca02c; stroke-width: 1.5; stroke-linecap: square"/>
    <defs>
     <path id="m9d304fdafe" d="M 0 3 
C 0.795609 3 1.55874 2.683901 2.12132 2.12132 
C 2.683901 1.55874 3 0.795609 3 0 
C 3 -0.795609 2.683901 -1.55874 2.12132 -2.12132 
C 1.55874 -2.683901 0.795609 -3 0 -3 
C -0.795609 -3 -1.55874 -2.683901 -2.12132 -2.12132 
C -2.683901 -1.55874 -3 -0.795609 -3 0 
C -3 0.795609 -2.683901 1.55874 -2.12132 2.12132 
C -1.55874 2.683901 -0.795609 3 0 3 
z
" style="stroke: #2ca02c"/>
    </defs>
    <g clip-path="url(#p6ee08300b4)">
     <use xlink:href="#m9d304fdafe" x="79.047273" y="42.503636" style="fill: #2ca02c; stroke: #2ca02c"/>
     <use xlink:href="#m9d304fdafe" x="185.419301" y="91.615325" style="fill: #2ca02c; stroke: #2ca02c"/>
     <use xlink:href="#m9d304fdafe" x="539.992727" y="158.508831" style="fill: #2ca02c; stroke: #2ca02c"/>
    </g>
   </g>
   <g id="line2d_26">
    <path d="M 185.419301 114.195411 
L 539.992727 162.460346 
" clip-path="url(#p6ee08300b4)" style="fill: none; stroke: #d62728; stroke-width: 1.5; stroke-linecap: square"/>
    <defs>
     <path id="m16c8e77dc7" d="M 0 3 
C 0.795609 3 1.55874 2.683901 2.12132 2.12132 
C 2.683901 1.55874 3 0.795609 3 0 
C 3 -0.795609 2.683901 -1.55874 2.12132 -2.12132 
C 1.55874 -2.683901 0.795609 -3 0 -3 
C -0.795609 -3 -1.55874 -2.683901 -2.12132 -2.12132 
C -2.683901 -1.55874 -3 -0.795609 -3 0 
C -3 0.795609 -2.683901 1.55874 -2.12132 2.12132 
C -1.55874 2.683901 -0.795609 3 0 3 
z
" style="stroke: #d62728"/>
    </defs>
    <g clip-path="url(#p6ee08300b4)">
     <use xlink:href="#m16c8e77dc7" x="185.419301" y="114.195411" style="fill: #d62728; stroke: #d62728"/>
     <use xlink:href="#m16c8e77dc7" x="539.992727" y="162.460346" style="fill: #d62728; stroke: #d62728"/>
    </g>
   </g>
   <g id="line2d_27">
    <path d="M 79.047273 93.02658 
L 185.419301 130.283723 
" clip-path="url(#p6ee08300b4)" style="fill: none; stroke: #9467bd; stroke-width: 1.5; stroke-linecap: square"/>
    <defs>
     <path id="mb7543da72b" d="M 0 3 
C 0.795609 3 1.55874 2.683901 2.12132 2.12132 
C 2.683901 1.55874 3 0.795609 3 0 
C 3 -0.795609 2.683901 -1.55874 2.12132 -2.12132 
C 1.55874 -2.683901 0.795609 -3 0 -3 
C -0.795609 -3 -1.55874 -2.683901 -2.12132 -2.12132 
C -2.683901 -1.55874 -3 -0.795609 -3 0 
C -3 0.795609 -2.683901 1.55874 -2.12132 2.12132 
C -1.55874 2.683901 -0.795609 3 0 3 
z
" style="stroke: #9467bd"/>
    </defs>
    <g clip-path="url(#p6ee08300b4)">
     <use xlink:href="#mb7543da72b" x="79.047273" y="93.02658" style="fill: #9467bd; stroke: #9467bd"/>
     <use xlink:href="#mb7543da72b" x="185.419301" y="130.283723" style="fill: #9467bd; stroke: #9467bd"/>
    </g>
   </g>
   <g id="patch_3">
    <path d="M 56 310.12 
L 56 29.76 
" style="fill: none; stroke: #000000; stroke-width: 0.8; stroke-linejoin: miter; stroke-linecap: square"/>
   </g>
   <g id="patch_4">
    <path d="M 563.04 310.12 
L 563.04 29.76 
" style="fill: none; stroke: #000000; stroke-width: 0.8; stroke-linejoin: miter; stroke-linecap: square"/>
   </g>
   <g id="patch_5">
    <path d="M 56 310.12 
L 563.04 310.12 
" style="fill: none; stroke: #000000; stroke-width: 0.8; stroke-linejoin: miter; stroke-linecap: square"/>
   </g>
   <g id="patch_6">
    <path d="M 56 29.76 
L 563.04 29.76 
" style="fill: none; stroke: #000000; stroke-width: 0.8; stroke-linejoin: miter; stroke-linecap: square"/>
   </g>
   <g id="text_14">
    <text style="font-size: 14.4px; font-family: 'DejaVu Sans', 'Arial', sans-serif; text-anchor: middle" x="309.52" y="23.76" transform="rotate(-0 309.52 23.76)">Pengaruh Tekanan terhadap SG Cairan Kriogenik</text>
   </g>
   <g id="legend_1">
    <g id="patch_7">
     <path d="M 464.611875 127.42875 
L 554.64 127.42875 
Q 557.04 127.42875 557.04 125.02875 
L 557.04 38.16 
Q 557.04 35.76 554.64 35.76 
L 464.611875 35.76 
Q 462.211875 35.76 462.211875 38.16 
L 462.211875 125.02875 
Q 462.211875 127.42875 464.611875 127.42875 
z
" style="fill: #ffffff; opacity: 0.8; stroke: #cccccc; stroke-linejoin: miter"/>
    </g>
    <g id="line2d_28">
     <path d="M 467.011875 45.478125 
L 479.011875 45.478125 
L 491.011875 45.478125 
" style="fill: none; stroke: #1f77b4; stroke-width: 1.5; stroke-linecap: square"/>
     <g>
      <use xlink:href="#m474ffd7bab" x="479.011875" y="45.478125" style="fill: #1f77b4; stroke: #1f77b4"/>
     </g>
    </g>
    <g id="text_15">
     <text style="font-size: 12px; font-family: 'DejaVu Sans', 'Arial', sans-serif; text-anchor: start" x="500.611875" y="49.678125" transform="rotate(-0 500.611875 49.678125)">Nitrogen</text>
    </g>
    <g id="line2d_29">
     <path d="M 467.011875 63.091875 
L 479.011875 63.091875 
L 491.011875 63.091875 
" style="fill: none; stroke: #ff7f0e; stroke-width: 1.5; stroke-linecap: square"/>
     <g>
      <use xlink:href="#m978d0ed011" x="479.011875" y="63.091875" style="fill: #ff7f0e; stroke: #ff7f0e"/>
     </g>
    </g>
    <g id="text_16">
     <text style="font-size: 12px; font-family: 'DejaVu Sans', 'Arial', sans-serif; text-anchor: start" x="500.611875" y="67.291875" transform="rotate(-0 500.611875 67.291875)">Oksigen</text>
    </g>
    <g id="line2d_30">
     <path d="M 467.011875 80.705625 
L 479.011875 80.705625 
L 491.011875 80.705625 
" style="fill: none; stroke: #2ca02c; stroke-width: 1.5; stroke-linecap: square"/>
     <g>
      <use xlink:href="#m9d304fdafe" x="479.011875" y="80.705625" style="fill: #2ca02c; stroke: #2ca02c"/>
     </g>
    </g>
    <g id="text_17">
     <text style="font-size: 12px; font-family: 'DejaVu Sans', 'Arial', sans-serif; text-anchor: start" x="500.611875" y="84.905625" transform="rotate(-0 500.611875 84.905625)">Argon</text>
    </g>
    <g id="line2d_31">
     <path d="M 467.011875 98.319375 
L 479.011875 98.319375 
L 491.011875 98.319375 
" style="fill: none; stroke: #d62728; stroke-width: 1.5; stroke-linecap: square"/>
     <g>
      <use xlink:href="#m16c8e77dc7" x="479.011875" y="98.319375" style="fill: #d62728; stroke: #d62728"/>
     </g>
    </g>
    <g id="text_18">
     <text style="font-size: 12px; font-family: 'DejaVu Sans', 'Arial', sans-serif; text-anchor: start" x="500.611875" y="102.519375" transform="rotate(-0 500.611875 102.519375)">CO₂</text>
    </g>
    <g id="line2d_32">
     <path d="M 467.011875 115.933125 
L 479.011875 115.933125 
L 491.011875 115.933125 
" style="fill: none; stroke: #9467bd; stroke-width: 1.5; stroke-linecap: square"/>
     <g>
      <use xlink:href="#mb7543da72b" x="479.011875" y="115.933125" style="fill: #9467bd; stroke: #9467bd"/>
     </g>
    </g>
    <g id="text_19">
     <text style="font-size: 12px; font-family: 'DejaVu Sans', 'Arial', sans-serif; text-anchor: start" x="500.611875" y="120.133125" transform="rotate(-0 500.611875 120.133125)">N₂O</text>
    </g>
   </g>
  </g>
 </g>
 <defs>
  <clipPath id="p6ee08300b4">
   <rect x="56" y="29.76" width="507.04" height="280.36"/>
  </clipPath>
 </defs>
</svg>
